<svg width="98" height="40" viewBox="0 0 98 40" fill="none" xmlns="http://www.w3.org/2000/svg">
  <path d="M3.99685 3.46948H6.44605C8.16911 3.46948 9.85155 3.62772 9.85155 5.51808C9.85155 7.38677 8.24067 7.54167 6.44605 7.54167H3.99685V3.46948ZM11.7914 9.84382C13.2514 8.98167 13.9613 7.56669 13.9613 5.51824C13.9613 3.46788 13.2514 2.04892 11.7912 1.18007C10.5564 0.444935 8.81803 0.102783 6.32016 0.102783H0.113281V16.506H3.99685V10.908H6.32016C8.82287 10.908 10.5614 10.5699 11.7914 9.8435V9.84382ZM19.6 8.47729C19.9783 8.16685 20.495 8.02215 21.226 8.02215C21.7834 8.02215 22.3664 8.09896 22.7777 8.16191V4.30119C22.5962 4.28238 22.4115 4.28238 22.2324 4.28238C20.692 4.34693 19.6517 5.02055 18.8619 6.46629L18.7513 6.66868V4.43155H15.145V16.5057H18.8771V10.4937C18.8771 9.53593 19.1135 8.87617 19.5998 8.47729M30.1543 11.1574L32.0308 10.977V11.6878C32.0308 12.4685 31.7257 13.1052 31.1483 13.5289C30.6603 13.8873 29.9878 14.0846 29.2544 14.0846C28.0834 14.0846 27.3842 13.5606 27.3842 12.683C27.3842 11.801 28.2127 11.3447 30.1545 11.1574H30.1543ZM35.562 9.02501C35.5877 7.45593 36.975 6.75362 38.3386 6.75362C39.0625 6.75362 39.7262 6.94884 40.207 7.3031C40.756 7.70756 41.0525 8.30278 41.0644 9.02501L41.0654 9.08398H35.5611L35.562 9.02501ZM24.8022 15.6064C25.6873 16.3903 26.9745 16.8045 28.5247 16.8045C30.7291 16.8045 32.2123 16.167 33.3345 14.7372L33.3798 14.6794L33.4265 14.7361C34.5371 16.0892 36.2704 16.8045 38.4387 16.8045C40.1684 16.8045 43.2707 16.3179 44.6983 13.0727L41.3399 12.3268C40.8323 13.3447 39.8652 13.8607 38.4643 13.8607C37.7095 13.8607 37.0066 13.6513 36.4855 13.2709C35.901 12.8443 35.5728 12.229 35.5367 11.4916L35.5335 11.4306H44.775C44.9144 9.07043 44.3463 7.14788 43.1306 5.86804C42.0217 4.70039 40.3818 4.08334 38.3886 4.08334C36.7911 4.08334 35.3507 4.55219 34.2231 5.4392L34.182 5.47155L34.1449 5.43489C33.2716 4.57115 31.8803 4.13322 30.0092 4.13322C27.8987 4.13322 24.3159 4.64398 23.9349 8.04956L27.439 8.16972C27.5357 7.17577 28.3478 6.62916 29.7327 6.62916C31.2317 6.62916 31.9301 7.16143 31.9301 8.30438V8.65545L29.9145 8.8596C28.1767 9.03362 26.395 9.30071 25.1337 10.0704C24.412 10.5139 23.5514 11.3401 23.5514 12.7576C23.5514 13.8803 23.9956 14.8921 24.8022 15.6064V15.6064ZM52.4316 13.2387C50.8162 13.2387 49.7308 12.0056 49.7308 10.1704C49.7308 8.23617 50.7151 7.12669 52.4316 7.12669C54.1226 7.12669 55.1324 8.25529 55.1324 10.1453C55.1324 11.9668 54.0218 13.2387 52.4316 13.2387M48.0901 19.8151C49.1508 20.6567 50.5607 21.0837 52.2805 21.0837C54.3759 21.0837 55.9878 20.5782 57.0719 19.5815C58.1446 18.5704 58.6886 17.0695 58.6886 15.121V4.43171H54.9564V5.80557L54.849 5.65019C54.3813 4.97338 53.2501 4.18294 51.601 4.18294C49.936 4.18294 48.5309 4.69864 47.538 5.67442C46.4815 6.7125 45.923 8.25864 45.923 10.1453C45.923 12.101 46.4391 13.6277 47.4574 14.6829C48.4041 15.6639 49.7672 16.1825 51.4 16.1825C52.8302 16.1825 54.12 15.5869 54.8498 14.5895L54.9564 14.444V15.8676C54.9564 16.7034 54.7107 17.312 54.2054 17.7281C53.7428 18.0891 53.1055 18.2642 52.2557 18.2642C50.8557 18.2642 50.0881 17.8397 49.6987 16.847L46.3138 16.9192C46.5754 18.0996 47.1886 19.0998 48.0901 19.8151M33.1372 39.912C36.5843 39.912 40.0739 38.0776 40.0739 34.5716C40.0739 31.3366 36.9548 30.4134 34.0311 29.8019L31.7157 29.3042C30.4364 29.0351 29.7315 28.4319 29.7315 27.6056C29.7315 26.741 30.7475 26.2038 32.3824 26.2038C34.1346 26.2038 35.415 26.9165 35.8203 28.113L39.6838 27.5571C39.3349 26.0832 38.4569 24.8814 37.142 24.0787C35.9178 23.3316 34.3503 22.9367 32.609 22.9367C30.9085 22.9367 29.2238 23.3589 27.9873 24.0947C26.9542 24.7093 25.7227 25.8521 25.7227 27.8046C25.7227 30.2859 27.3952 31.854 30.8352 32.599L32.8981 33.0468C34.4513 33.3724 36.0395 33.8613 36.0395 35.0193C36.0395 36.0371 34.9639 36.6448 33.1628 36.6448C31.0046 36.6448 29.6164 35.7699 29.1442 34.1138L25.2822 34.67C26.071 38.051 28.8577 39.912 33.1372 39.912M46.6634 39.6134H49.0701V36.7194H48.0224C46.5621 36.7194 46.3024 36.3391 46.3024 35.268V30.3834H49.0701V27.5393H46.3024V23.8821H42.5702V27.5394H40.5823V30.3834H42.5702V36.1885C42.5702 39.0959 43.6425 39.6134 46.6634 39.6134ZM62.4674 39.6134V27.5394H58.7355V33.7506C58.7355 35.9587 58.0421 36.9436 56.4873 36.9436C55.6788 36.9436 55.1981 36.7578 54.88 36.3224C54.55 35.8709 54.4156 35.1259 54.4156 33.7506V27.5394H50.6834V34.7707C50.6834 36.6854 50.9666 37.8864 51.6016 38.665C52.2904 39.4924 53.4179 39.9122 54.9525 39.9122C57.0808 39.9122 58.0442 39.0556 58.706 38.2178L58.8112 38.0848V39.6135H62.4675L62.4674 39.6134ZM70.7068 36.9683C69.1127 36.9683 67.9554 35.5522 67.9554 33.6013C67.9554 31.6357 69.1127 30.2092 70.7068 30.2092C72.3626 30.2092 73.4326 31.5308 73.4326 33.5762C73.4326 35.6685 72.3881 36.9683 70.707 36.9683H70.7068ZM76.989 39.6134V23.2104H73.2566V28.8386L73.1492 28.6832C72.4263 27.6368 70.9068 27.2655 69.8255 27.2655C68.1878 27.2655 66.7834 27.8408 65.7641 28.9292C64.7064 30.0586 64.1474 31.6655 64.1474 33.5762C64.1474 35.5253 64.6785 37.1466 65.6833 38.2647C66.6517 39.3423 68.0147 39.912 69.6245 39.912C70.7447 39.912 72.3399 39.4951 73.1491 38.32L73.2566 38.1643V39.6134H76.9888H76.989ZM79.5403 26.1541H83.2726V23.2104H79.5403V26.1541ZM79.5403 39.6134H83.2726V27.5394H79.5403V39.6134ZM0.113281 39.6134H19.2075V35.9235H0.113281V39.6134ZM94.1046 33.6013C94.1046 35.6465 93.0344 36.9683 91.3782 36.9683C89.7124 36.9683 88.6774 35.6781 88.6774 33.6013C88.6774 31.5407 89.7377 30.2092 91.3782 30.2092C93.0344 30.2092 94.1046 31.5407 94.1046 33.6013ZM86.8218 28.8059C85.5446 29.9202 84.8696 31.5785 84.8696 33.6011C84.8696 35.6225 85.5446 37.2762 86.8217 38.3839C87.9577 39.3694 89.576 39.9119 91.3782 39.9119C93.1738 39.9119 94.7929 39.3692 95.9381 38.3836C97.2292 37.2723 97.912 35.6186 97.912 33.6011C97.912 31.5823 97.2293 29.924 95.9378 28.8059C94.7905 27.8126 93.1712 27.2653 91.3782 27.2653C89.5784 27.2653 87.9603 27.8126 86.8218 28.8059" fill="black"/>
</svg>
